<?xml version="1.0" encoding="UTF-8" standalone="no"?>
<svg width="1200px" height="1200px" viewBox="0 0 1200 1200" version="1.1" xmlns="http://www.w3.org/2000/svg" xmlns:xlink="http://www.w3.org/1999/xlink">
    <g id="Page-1" stroke="none" stroke-width="1" fill="none" fill-rule="evenodd">
        <g id="add" fill="#25B99A">
            <g id="Slice-2">
                <g id="Page-1">
                    <g id="Slice-1">
                        <path d="M1200,600 C1200,637.5 1162.5,675 1125,675 L675,675 L675,1125 C675,1162.5 637.5,1200 600,1200 C562.5,1200 525,1162.5 525,1125 L525,675 L75,675 C37.5,675 0,637.5 0,600 C0,562.5 37.5,525 75,525 L525,525 L525,75 C525,37.5 562.5,0 600,0 C637.5,0 675,37.5 675,75 L675,525 L1125,525 C1162.5,525 1200,562.5 1200,600 Z" id="Shape"></path>
                    </g>
                </g>
            </g>
        </g>
    </g>
</svg>