<?xml version="1.0" encoding="UTF-8" standalone="no"?>
<svg width="1200px" height="1200px" viewBox="0 0 1200 1200" version="1.1" xmlns="http://www.w3.org/2000/svg" xmlns:xlink="http://www.w3.org/1999/xlink">
    <g id="Page-1" stroke="none" stroke-width="1" fill="none" fill-rule="evenodd">
        <g id="add-2" fill="#000000">
            <g id="Group" transform="translate(163.636364, 54.545455)">
                <path d="M714.545455,141.818182 L610.909091,141.818182 L610.909091,125.454545 C610.909091,54.5454545 556.363636,0 485.454545,0 L392.727273,0 C321.818182,0 261.818182,54.5454545 261.818182,125.454545 L261.818182,136.363636 L158.181818,136.363636 C87.2727273,136.363636 32.7272727,190.909091 32.7272727,261.818182 L32.7272727,332.727273 C32.7272727,360 54.5454545,381.818182 81.8181818,387.272727 L81.8181818,960 C81.8181818,1030.90909 136.363636,1085.45455 207.272727,1085.45455 L670.909091,1085.45455 C741.818182,1085.45455 796.363636,1030.90909 796.363636,960 L796.363636,392.727273 C823.636364,387.272727 845.454545,365.454545 845.454545,338.181818 L845.454545,267.272727 C840,196.363636 785.454545,141.818182 714.545455,141.818182 Z M332.727273,125.454545 C332.727273,92.7272727 360,65.4545455 392.727273,65.4545455 L485.454545,65.4545455 C518.181818,65.4545455 545.454545,92.7272727 545.454545,125.454545 L545.454545,136.363636 L332.727273,136.363636 L332.727273,125.454545 Z M725.454545,965.454545 C725.454545,998.181818 698.181818,1025.45455 665.454545,1025.45455 L201.818182,1025.45455 C169.090909,1025.45455 141.818182,998.181818 141.818182,965.454545 L141.818182,392.727273 L720,392.727273 L720,965.454545 L725.454545,965.454545 Z M774.545455,327.272727 L98.1818182,327.272727 L98.1818182,267.272727 C98.1818182,234.545455 125.454545,207.272727 158.181818,207.272727 L714.545455,207.272727 C747.272727,207.272727 774.545455,234.545455 774.545455,267.272727 L774.545455,327.272727 L774.545455,327.272727 Z" id="Shape"></path>
                <g transform="translate(218.181818, 490.909091)" id="Shape">
                    <path d="M218.181818,436.363636 C196.363636,436.363636 185.454545,420 185.454545,403.636364 L185.454545,32.7272727 C185.454545,10.9090909 201.818182,-9.68921912e-14 218.181818,-9.68921912e-14 C234.545455,-9.68921912e-14 250.909091,16.3636364 250.909091,32.7272727 L250.909091,403.636364 C250.909091,420 240,436.363636 218.181818,436.363636 Z"></path>
                    <path d="M54.5454545,436.363636 C32.7272727,436.363636 21.8181818,420 21.8181818,403.636364 L21.8181818,32.7272727 C21.8181818,10.9090909 38.1818182,-9.68921912e-14 54.5454545,-9.68921912e-14 C76.3636364,-9.68921912e-14 87.2727273,16.3636364 87.2727273,32.7272727 L87.2727273,403.636364 C92.7272727,420 76.3636364,436.363636 54.5454545,436.363636 Z"></path>
                    <path d="M381.818182,436.363636 C360,436.363636 349.090909,420 349.090909,403.636364 L349.090909,32.7272727 C349.090909,10.9090909 365.454545,-9.68921912e-14 381.818182,-9.68921912e-14 C403.636364,-9.68921912e-14 414.545455,16.3636364 414.545455,32.7272727 L414.545455,403.636364 C414.545455,420 398.181818,436.363636 381.818182,436.363636 Z"></path>
                </g>
            </g>
        </g>
    </g>
</svg>